<svg width="512" height="512" viewBox="0 0 512 512" fill="none" xmlns="http://www.w3.org/2000/svg">
  <defs>
    <linearGradient id="bodyGradient" x1="170" y1="70" x2="344" y2="432" gradientUnits="userSpaceOnUse">
      <stop offset="0" stop-color="#FFEBC8" />
      <stop offset="0.55" stop-color="#FFB547" />
      <stop offset="1" stop-color="#E06A1B" />
    </linearGradient>
    <linearGradient id="finGradient" x1="138" y1="284" x2="256" y2="418" gradientUnits="userSpaceOnUse">
      <stop offset="0" stop-color="#FFCC6B" />
      <stop offset="1" stop-color="#D75210" />
    </linearGradient>
    <linearGradient id="glassGradient" x1="256" y1="160" x2="256" y2="226" gradientUnits="userSpaceOnUse">
      <stop offset="0" stop-color="#FFFCE7" />
      <stop offset="1" stop-color="#FFD66B" />
    </linearGradient>
  </defs>

  <g id="rocket-placeholder" transform="rotate(20 256 256)">
    <path d="M256 54C317 105 349 184 349 282V325H163V282C163 184 195 105 256 54Z" fill="url(#bodyGradient)" />
    <path d="M189 325H323L363 425H149L189 325Z" fill="url(#finGradient)" />
    <path d="M149 425L109 468C100 478 84 468 89 456L122 385L149 425Z" fill="#BE3F0E" />
    <path d="M363 425L403 468C412 478 428 468 423 456L390 385L363 425Z" fill="#BE3F0E" />
    <path d="M256 333L297 420H215L256 333Z" fill="#8A2C09" />
    <circle cx="256" cy="194" r="37" fill="url(#glassGradient)" />
    <circle cx="256" cy="194" r="23" fill="#FFF4CE" fill-opacity="0.68" />
    <rect x="206" y="246" width="100" height="16" rx="8" fill="#FFF0CB" fill-opacity="0.55" />
  </g>
</svg>
